<mxfile host="app.diagrams.net" modified="2024-07-12T11:09:58.605Z" agent="Mozilla/5.0 (Windows NT 10.0; Win64; x64) AppleWebKit/537.36 (KHTML, like Gecko) Chrome/126.0.0.0 Safari/537.36 Edg/126.0.0.0" version="24.6.5" etag="GSx0my24lFVp6qEKKLqp" type="github">
  <diagram name="StrÃ¡nka-1" id="chKmp8JtXYeFf6vx0-j8">
    <mxGraphModel>
      <root>
        <mxCell id="0" />
        <mxCell id="1" parent="0" />
      </root>
    </mxGraphModel>
  </diagram>
</mxfile>
